<svg version="1.1" id="Layer_1" xmlns="http://www.w3.org/2000/svg" xmlns:xlink="http://www.w3.org/1999/xlink" x="0px" y="0px"
	 width="100%" viewBox="0 0 770 770" enable-background="new 0 0 770 770" xml:space="preserve">
<path fill="#4A555D" opacity="1.000000" stroke="none" 
	d="
M424.000000,771.000000 
	C282.666656,771.000000 141.833328,771.000000 1.000000,771.000000 
	C1.000000,514.333313 1.000000,257.666656 1.000000,1.000000 
	C257.666656,1.000000 514.333313,1.000000 771.000000,1.000000 
	C771.000000,257.666656 771.000000,514.333313 771.000000,771.000000 
	C655.500000,771.000000 540.000000,771.000000 424.000000,771.000000 
M517.501343,505.941864 
	C396.791870,505.941864 276.082397,505.941864 155.373260,505.941864 
	C155.373260,509.594177 155.373260,512.360596 155.373260,515.255310 
	C309.644073,515.255310 463.633484,515.255310 617.667969,515.255310 
	C617.667969,511.996948 617.667969,509.205566 617.667969,505.941925 
	C584.454041,505.941925 551.477783,505.941925 517.501343,505.941864 
M465.500183,346.992188 
	C516.208679,346.992188 566.917175,346.992188 617.479980,346.992188 
	C617.479980,343.316589 617.479980,340.429718 617.479980,337.628906 
	C559.553711,337.628906 502.046295,337.628906 444.628235,337.628906 
	C444.628235,340.961761 444.628235,343.858978 444.628235,346.992188 
	C451.527008,346.992188 458.013672,346.992188 465.500183,346.992188 
M216.500000,346.992188 
	C253.749115,346.992188 290.998230,346.992188 328.470154,346.992188 
	C328.470154,343.549377 328.470154,340.658936 328.470154,337.514801 
	C270.642578,337.514801 213.130585,337.514801 155.390533,337.514801 
	C155.390533,340.725494 155.390533,343.620392 155.390533,346.992188 
	C175.616730,346.992188 195.558365,346.992188 216.500000,346.992188 
M428.952118,316.499786 
	C428.951721,306.833771 428.990723,297.167542 428.938324,287.501801 
	C428.897675,279.998108 426.971558,278.151428 419.345245,278.142059 
	C406.695190,278.126495 394.045166,278.137817 381.253326,278.137817 
	C381.172638,276.457306 381.108368,275.117981 381.049469,273.891296 
	C375.907288,273.891296 371.175446,273.891296 366.406586,273.891296 
	C366.548187,275.467468 366.653717,276.641846 366.786743,278.122681 
	C364.873596,278.033325 363.436951,277.966217 361.840820,277.891663 
	C361.840820,276.366821 361.840820,275.136047 361.840820,273.790649 
	C358.548187,273.790649 355.477722,273.790649 352.226257,273.790649 
	C352.226257,275.320648 352.226257,276.545532 352.226257,277.961761 
	C346.785400,278.113434 344.154510,280.674347 344.189789,286.108551 
	C344.291473,301.773468 344.180542,317.439697 344.247986,333.105011 
	C344.272888,338.890076 346.338409,341.055267 352.067108,341.074127 
	C375.065216,341.149841 398.063934,341.150909 421.061981,341.068298 
	C426.626892,341.048309 428.764404,338.754761 428.916718,332.997742 
	C429.053314,327.834991 428.949738,322.665894 428.952118,316.499786 
M183.307144,448.174286 
	C192.885986,448.993347 198.548462,443.830292 197.314682,433.745636 
	C195.563232,435.879120 194.032318,437.055176 193.445374,438.591766 
	C191.867447,442.722687 189.179871,445.025116 184.744370,444.327148 
	C179.988373,443.578705 178.265579,440.134705 178.206238,435.670471 
	C178.155365,431.843536 178.188080,428.015442 178.188873,424.187866 
	C178.190521,416.148041 180.069107,412.700012 184.807755,412.029724 
	C189.376663,411.383453 191.961395,413.823029 194.544266,421.274109 
	C197.976898,420.896545 198.407684,419.015350 197.372223,416.094421 
	C195.464844,410.713928 190.203873,407.360992 184.469528,408.039551 
	C178.858047,408.703583 174.270996,413.317413 174.016830,419.020844 
	C173.779968,424.335938 174.050369,429.671661 173.914856,434.993652 
	C173.751266,441.418030 176.377182,445.863647 183.307144,448.174286 
M435.580475,448.166321 
	C442.645844,445.371826 445.191986,441.518524 443.827423,433.477509 
	C442.030670,436.200012 440.770294,437.798615 439.848999,439.573242 
	C438.146362,442.852783 435.670288,444.797974 431.894806,444.393677 
	C427.883484,443.964111 425.359985,441.452515 425.145325,437.557831 
	C424.806580,431.412018 424.804749,425.221344 425.129120,419.074432 
	C425.346313,414.958099 427.896423,412.281464 432.195160,412.047729 
	C436.450653,411.816315 439.033844,414.117340 440.130981,418.161804 
	C440.417694,419.218872 440.672119,420.284698 440.953796,421.395355 
	C445.057068,419.690491 445.215393,419.395538 444.081818,416.054474 
	C442.254425,410.668427 436.889618,407.339722 431.144592,408.027222 
	C425.494324,408.703369 421.018921,413.266357 420.760925,419.075836 
	C420.524597,424.397705 420.635468,429.737549 420.681274,435.068726 
	C420.759918,444.226196 425.538544,448.665771 435.580475,448.166321 
M467.911591,425.501404 
	C469.477417,427.576996 469.296295,429.045044 466.603424,429.971985 
	C464.251160,430.781616 461.971497,431.811829 459.687225,432.807617 
	C454.034760,435.271790 451.980621,439.243835 454.072327,443.578949 
	C456.250885,448.094055 461.663544,449.553131 468.299896,446.167969 
	C465.626343,445.129364 464.005493,444.634308 462.513885,443.882751 
	C460.985474,443.112701 459.583618,442.091492 458.126343,441.180237 
	C459.061615,439.796234 459.697998,437.903046 460.997742,437.140045 
	C463.315247,435.779663 466.033569,435.102173 469.251678,433.887115 
	C469.251678,439.063599 469.251678,443.324432 469.251678,447.585266 
	C469.613861,447.803925 469.976074,448.022552 470.338257,448.241180 
	C471.434479,447.117065 473.437805,446.022247 473.475281,444.863861 
	C473.673401,438.733643 473.872772,432.524445 473.103790,426.465515 
	C472.422577,421.098297 466.664429,417.961609 461.370605,419.115326 
	C456.234619,420.234619 453.102783,425.162872 454.236298,431.272003 
	C455.635040,430.074280 457.322113,429.310974 457.846436,428.060211 
	C459.885803,423.195312 462.980103,422.377777 467.911591,425.501404 
M245.397568,436.879578 
	C247.801178,435.963074 250.204788,435.046570 253.531372,433.778137 
	C253.531372,439.089630 253.531372,443.428192 253.531372,447.766785 
	C254.008881,447.941772 254.486389,448.116760 254.963882,448.291748 
	C255.913513,447.027222 257.620178,445.798279 257.681610,444.491974 
	C257.946686,438.857788 258.098877,433.167053 257.584991,427.561737 
	C257.061646,421.853210 251.704590,418.192200 246.139862,419.010284 
	C240.730652,419.805481 237.328583,424.698639 238.375824,431.914337 
	C240.143066,429.682953 241.071533,427.904846 242.521744,426.832275 
	C244.348343,425.481384 246.642273,423.849670 248.657654,423.946136 
	C250.369614,424.028107 251.972443,426.390717 254.411102,428.389832 
	C251.025223,429.793488 249.198380,430.533112 247.386078,431.306824 
	C245.402924,432.153442 243.336975,432.863373 241.476059,433.928162 
	C236.333649,436.870483 235.862732,443.540344 240.954178,446.489777 
	C243.642426,448.047089 247.238266,448.037598 250.424332,448.735504 
	C250.745392,447.877350 251.066452,447.019196 251.387527,446.161041 
	C249.934158,445.413239 248.464645,444.694885 247.031677,443.909851 
	C245.398544,443.015137 243.797989,442.060974 242.183289,441.132629 
	C242.991486,439.831207 243.799698,438.529816 245.397568,436.879578 
M211.005371,437.483368 
	C211.005661,435.485626 211.086517,433.483948 210.989410,431.490967 
	C210.788651,427.370758 211.847885,424.061584 216.548325,423.564209 
	C220.373871,423.159393 222.496170,426.047516 222.565582,431.499695 
	C222.634354,436.902893 222.580612,442.307617 222.580612,447.711670 
	C223.183182,447.898987 223.785751,448.086304 224.388321,448.273621 
	C225.230438,446.710083 226.622742,445.206390 226.800674,443.570618 
	C227.176559,440.115295 226.919662,436.590912 226.918533,433.094879 
	C226.914673,421.243927 222.911758,417.792023 211.022919,419.770966 
	C211.022919,416.087250 211.022919,412.461517 211.022919,408.835815 
	C210.475601,408.602234 209.928268,408.368652 209.380951,408.135071 
	C208.505646,409.800598 206.927429,411.443970 206.874008,413.135437 
	C206.611389,421.451080 206.753632,429.779510 206.753052,438.103424 
	C206.752838,441.336731 206.753006,444.570068 206.753006,448.191223 
	C213.370209,446.338165 210.092178,441.627533 211.005371,437.483368 
M343.278473,442.979126 
	C337.777161,444.680786 335.960327,443.707184 334.807892,438.116272 
	C338.492310,436.447266 342.248993,434.729187 346.019409,433.041809 
	C350.453461,431.057373 351.537018,427.710999 348.830566,423.677002 
	C346.392975,420.043701 342.845490,418.392120 338.507294,419.049347 
	C334.104767,419.716309 330.996216,422.491333 330.422302,426.763550 
	C329.809753,431.323486 329.788055,436.105164 330.440277,440.656494 
	C331.248535,446.296844 336.982056,449.486694 342.527161,448.136902 
	C347.644989,446.891113 350.615753,442.029388 348.942810,435.657806 
	C346.905121,438.426971 345.396698,440.476837 343.278473,442.979126 
M531.834717,437.759033 
	C531.508972,438.308777 531.098511,438.825806 530.871582,439.413727 
	C529.641846,442.598633 527.189575,444.928833 524.051331,443.587982 
	C521.996521,442.710052 520.455017,439.738739 519.537292,437.373749 
	C518.804626,435.485718 519.336609,433.097321 519.349487,430.931274 
	C519.400635,422.324890 518.668030,423.406036 526.786926,423.400421 
	C529.775696,423.398346 532.459534,423.360199 532.117554,418.704468 
	C527.885071,418.704468 523.806335,418.704468 519.594788,418.704468 
	C519.389099,414.987915 519.210754,411.765564 518.982605,407.642578 
	C517.158081,409.067719 515.580017,409.663666 515.276245,410.651459 
	C514.155701,414.295288 513.438538,418.064789 512.627502,421.799591 
	C512.545105,422.179199 512.833923,422.649536 512.980774,423.067108 
	C513.667297,425.019470 514.765869,426.927338 514.968811,428.927063 
	C515.320557,432.393372 514.868896,435.940430 515.209412,439.408905 
	C515.742188,444.833710 520.135925,448.544739 525.397339,448.435120 
	C530.293274,448.333130 534.587463,444.615875 535.041931,439.964661 
	C535.217285,438.170166 535.711670,435.740570 531.834717,437.759033 
M585.672974,423.676086 
	C590.728210,423.204254 592.604553,426.042603 592.664917,430.562836 
	C592.741516,436.301849 592.683411,442.042603 592.683411,447.782623 
	C593.249451,447.967957 593.815491,448.153290 594.381592,448.338623 
	C595.247437,446.897217 596.777588,445.492554 596.859558,444.007843 
	C597.153198,438.693604 597.180542,433.339569 596.879028,428.024933 
	C596.598450,423.080200 592.632690,419.428009 587.756104,418.977264 
	C582.855896,418.524353 577.752014,421.463684 577.319458,426.248871 
	C576.673584,433.393921 577.151794,440.640625 577.151794,447.844086 
	C577.698364,448.001495 578.244934,448.158875 578.791504,448.316284 
	C579.548584,446.672455 580.835327,445.067383 580.958984,443.377197 
	C581.274231,439.068329 580.656921,434.664642 581.241150,430.412720 
	C581.553101,428.141876 583.580017,426.106598 585.672974,423.676086 
M373.941925,425.126160 
	C375.351837,425.502655 376.761719,425.879150 379.052979,426.491028 
	C375.948364,418.972900 370.566376,416.788788 366.580688,420.673828 
	C364.833130,422.377319 363.590027,425.568268 363.713318,428.003052 
	C363.919250,432.070099 367.429657,433.153107 371.086914,434.161102 
	C373.144928,434.728302 375.364685,437.019806 376.108398,439.048798 
	C376.468933,440.032471 373.876251,443.094604 372.133301,443.630371 
	C369.190369,444.535004 366.650848,442.964111 365.719421,439.656311 
	C365.461029,438.738770 365.136780,437.839813 364.838287,436.918610 
	C360.849213,438.427094 360.697021,438.681366 361.773773,441.652191 
	C363.474731,446.345184 367.901093,449.039093 372.775269,448.347717 
	C377.202026,447.719849 380.666016,443.971283 380.917847,439.536163 
	C381.182465,434.876038 378.195892,431.521271 372.321594,430.194702 
	C369.947601,429.658630 367.205688,429.376587 367.992340,426.133514 
	C368.713623,423.159760 371.016968,422.967896 373.941925,425.126160 
M504.401459,440.247803 
	C504.393585,436.426025 504.521790,432.597961 504.346039,428.783905 
	C504.078583,422.977936 500.123199,419.109589 494.540222,418.928314 
	C489.344482,418.759613 484.713043,422.393433 484.352295,427.837372 
	C483.917419,434.400269 484.249329,441.014008 484.249329,447.605713 
	C484.810028,447.847504 485.370728,448.089294 485.931427,448.331085 
	C486.827850,446.702026 488.349670,445.127716 488.498047,443.433167 
	C488.873505,439.145172 488.656342,434.803040 488.630310,430.482849 
	C488.607239,426.654205 490.057251,423.748047 494.173828,423.644989 
	C498.593842,423.534302 500.111847,426.458679 500.053650,430.566406 
	C499.972656,436.280609 500.033264,441.996796 500.033264,447.847107 
	C505.502808,447.494354 504.170532,443.889862 504.401459,440.247803 
M299.090729,426.496185 
	C299.135406,430.821838 298.843567,435.183716 299.304474,439.464569 
	C299.978516,445.725189 305.517731,449.502533 311.460022,448.235321 
	C316.995239,447.054993 319.889252,442.421326 318.243683,435.872101 
	C316.783478,437.530334 315.878998,438.961578 314.611084,439.903656 
	C312.654572,441.357300 309.986511,443.888153 308.463409,443.389069 
	C306.436829,442.724915 304.802063,439.772278 303.794312,437.456665 
	C303.060364,435.770111 303.596527,433.523712 303.594635,431.526886 
	C303.587463,423.932983 303.591736,416.339111 303.591736,408.745209 
	C302.967499,408.515808 302.343231,408.286377 301.718994,408.056946 
	C300.843445,409.710236 299.366333,411.309479 299.212067,413.027496 
	C298.841431,417.155518 299.091248,421.339233 299.090729,426.496185 
M279.296265,418.942444 
	C274.146942,418.653381 269.753174,420.902924 269.137543,425.799377 
	C268.229156,433.024139 268.902954,440.447845 268.902954,447.786804 
	C269.339081,447.977783 269.775177,448.168762 270.211304,448.359741 
	C271.077637,446.785248 272.573181,445.256561 272.691742,443.627625 
	C273.041199,438.826172 272.382294,433.916656 273.080078,429.191498 
	C273.378571,427.170105 275.800629,424.473328 277.736420,423.986450 
	C279.372070,423.575073 281.834656,425.732361 283.650208,427.120422 
	C284.346466,427.652771 284.263824,429.203949 284.528442,430.260284 
	C288.433533,430.237305 289.498138,427.856964 287.717224,425.430420 
	C285.808228,422.829407 282.696075,421.111420 279.296265,418.942444 
M554.777954,443.725067 
	C551.053589,442.641266 550.163635,439.813385 550.182617,436.367523 
	C550.213440,430.771790 550.190918,425.175720 550.190918,419.579803 
	C549.679871,419.390381 549.168884,419.200928 548.657837,419.011475 
	C547.760193,420.277313 546.147583,421.510834 546.088684,422.814575 
	C545.833618,428.459991 545.705017,434.152130 546.156311,439.777069 
	C546.628601,445.663635 552.256775,449.374695 558.048645,448.207001 
	C563.555481,447.096741 566.520386,442.543579 565.093018,435.972961 
	C563.600098,437.632263 562.651184,439.014618 561.394104,440.006317 
	C559.566345,441.448181 557.516479,442.608398 554.777954,443.725067 
M545.767639,414.084503 
	C547.475159,413.863495 549.337524,413.958069 550.800903,413.239746 
	C551.273743,413.007721 551.189087,410.224060 550.462891,409.368500 
	C549.755920,408.535492 546.914062,408.133942 546.721924,408.483704 
	C545.896301,409.986511 545.701477,411.835815 545.767639,414.084503 
z"/>
<path fill="#E5E6E6" opacity="1.000000" stroke="none" 
	d="
M518.001404,505.941895 
	C551.477783,505.941925 584.454041,505.941925 617.667969,505.941925 
	C617.667969,509.205566 617.667969,511.996948 617.667969,515.255310 
	C463.633484,515.255310 309.644073,515.255310 155.373260,515.255310 
	C155.373260,512.360596 155.373260,509.594177 155.373260,505.941864 
	C276.082397,505.941864 396.791870,505.941864 518.001404,505.941895 
z"/>
<path fill="#E7E8E8" opacity="1.000000" stroke="none" 
	d="
M465.000244,346.992188 
	C458.013672,346.992188 451.527008,346.992188 444.628235,346.992188 
	C444.628235,343.858978 444.628235,340.961761 444.628235,337.628906 
	C502.046295,337.628906 559.553711,337.628906 617.479980,337.628906 
	C617.479980,340.429718 617.479980,343.316589 617.479980,346.992188 
	C566.917175,346.992188 516.208679,346.992188 465.000244,346.992188 
z"/>
<path fill="#E7E8E8" opacity="1.000000" stroke="none" 
	d="
M216.000000,346.992188 
	C195.558365,346.992188 175.616730,346.992188 155.390533,346.992188 
	C155.390533,343.620392 155.390533,340.725494 155.390533,337.514801 
	C213.130585,337.514801 270.642578,337.514801 328.470154,337.514801 
	C328.470154,340.658936 328.470154,343.549377 328.470154,346.992188 
	C290.998230,346.992188 253.749115,346.992188 216.000000,346.992188 
z"/>
<path fill="#D4D6D7" opacity="1.000000" stroke="none" 
	d="
M428.952118,316.999695 
	C428.949738,322.665894 429.053314,327.834991 428.916718,332.997742 
	C428.764404,338.754761 426.626892,341.048309 421.061981,341.068298 
	C398.063934,341.150909 375.065216,341.149841 352.067108,341.074127 
	C346.338409,341.055267 344.272888,338.890076 344.247986,333.105011 
	C344.180542,317.439697 344.291473,301.773468 344.189789,286.108551 
	C344.154510,280.674347 346.785400,278.113434 352.226257,277.961761 
	C352.226257,276.545532 352.226257,275.320648 352.226257,273.790649 
	C355.477722,273.790649 358.548187,273.790649 361.840820,273.790649 
	C361.840820,275.136047 361.840820,276.366821 361.840820,277.891663 
	C363.436951,277.966217 364.873596,278.033325 366.786743,278.122681 
	C366.653717,276.641846 366.548187,275.467468 366.406586,273.891296 
	C371.175446,273.891296 375.907288,273.891296 381.049469,273.891296 
	C381.108368,275.117981 381.172638,276.457306 381.253326,278.137817 
	C394.045166,278.137817 406.695190,278.126495 419.345245,278.142059 
	C426.971558,278.151428 428.897675,279.998108 428.938324,287.501801 
	C428.990723,297.167542 428.951721,306.833771 428.952118,316.999695 
M426.153351,332.262207 
	C426.152924,317.121399 426.077362,301.979980 426.201385,286.840179 
	C426.235168,282.713440 424.993439,280.833466 420.486725,280.865234 
	C397.693451,281.025970 374.898193,280.995605 352.104309,280.887299 
	C348.148865,280.868530 346.870148,282.477936 346.897736,286.260590 
	C347.011841,301.899719 347.018616,317.540710 346.893402,333.179688 
	C346.861786,337.129028 348.670654,338.553589 352.303711,338.551147 
	C375.098022,338.535950 397.892334,338.534912 420.686646,338.552460 
	C424.311218,338.555267 426.410736,337.115662 426.153351,332.262207 
z"/>
<path fill="#E3E4E4" opacity="1.000000" stroke="none" 
	d="
M182.932816,448.093628 
	C176.377182,445.863647 173.751266,441.418030 173.914856,434.993652 
	C174.050369,429.671661 173.779968,424.335938 174.016830,419.020844 
	C174.270996,413.317413 178.858047,408.703583 184.469528,408.039551 
	C190.203873,407.360992 195.464844,410.713928 197.372223,416.094421 
	C198.407684,419.015350 197.976898,420.896545 194.544266,421.274109 
	C191.961395,413.823029 189.376663,411.383453 184.807755,412.029724 
	C180.069107,412.700012 178.190521,416.148041 178.188873,424.187866 
	C178.188080,428.015442 178.155365,431.843536 178.206238,435.670471 
	C178.265579,440.134705 179.988373,443.578705 184.744370,444.327148 
	C189.179871,445.025116 191.867447,442.722687 193.445374,438.591766 
	C194.032318,437.055176 195.563232,435.879120 197.314682,433.745636 
	C198.548462,443.830292 192.885986,448.993347 182.932816,448.093628 
z"/>
<path fill="#E0E1E1" opacity="1.000000" stroke="none" 
	d="
M435.199707,448.230133 
	C425.538544,448.665771 420.759918,444.226196 420.681274,435.068726 
	C420.635468,429.737549 420.524597,424.397705 420.760925,419.075836 
	C421.018921,413.266357 425.494324,408.703369 431.144592,408.027222 
	C436.889618,407.339722 442.254425,410.668427 444.081818,416.054474 
	C445.215393,419.395538 445.057068,419.690491 440.953796,421.395355 
	C440.672119,420.284698 440.417694,419.218872 440.130981,418.161804 
	C439.033844,414.117340 436.450653,411.816315 432.195160,412.047729 
	C427.896423,412.281464 425.346313,414.958099 425.129120,419.074432 
	C424.804749,425.221344 424.806580,431.412018 425.145325,437.557831 
	C425.359985,441.452515 427.883484,443.964111 431.894806,444.393677 
	C435.670288,444.797974 438.146362,442.852783 439.848999,439.573242 
	C440.770294,437.798615 442.030670,436.200012 443.827423,433.477509 
	C445.191986,441.518524 442.645844,445.371826 435.199707,448.230133 
z"/>
<path fill="#E0E1E1" opacity="1.000000" stroke="none" 
	d="
M467.620850,425.209656 
	C462.980103,422.377777 459.885803,423.195312 457.846436,428.060211 
	C457.322113,429.310974 455.635040,430.074280 454.236298,431.272003 
	C453.102783,425.162872 456.234619,420.234619 461.370605,419.115326 
	C466.664429,417.961609 472.422577,421.098297 473.103790,426.465515 
	C473.872772,432.524445 473.673401,438.733643 473.475281,444.863861 
	C473.437805,446.022247 471.434479,447.117065 470.338257,448.241180 
	C469.976074,448.022552 469.613861,447.803925 469.251678,447.585266 
	C469.251678,443.324432 469.251678,439.063599 469.251678,433.887115 
	C466.033569,435.102173 463.315247,435.779663 460.997742,437.140045 
	C459.697998,437.903046 459.061615,439.796234 458.126343,441.180237 
	C459.583618,442.091492 460.985474,443.112701 462.513885,443.882751 
	C464.005493,444.634308 465.626343,445.129364 468.299896,446.167969 
	C461.663544,449.553131 456.250885,448.094055 454.072327,443.578949 
	C451.980621,439.243835 454.034760,435.271790 459.687225,432.807617 
	C461.971497,431.811829 464.251160,430.781616 466.603424,429.971985 
	C469.296295,429.045044 469.477417,427.576996 467.620850,425.209656 
z"/>
<path fill="#E0E1E1" opacity="1.000000" stroke="none" 
	d="
M245.002731,437.053986 
	C243.799698,438.529816 242.991486,439.831207 242.183289,441.132629 
	C243.797989,442.060974 245.398544,443.015137 247.031677,443.909851 
	C248.464645,444.694885 249.934158,445.413239 251.387527,446.161041 
	C251.066452,447.019196 250.745392,447.877350 250.424332,448.735504 
	C247.238266,448.037598 243.642426,448.047089 240.954178,446.489777 
	C235.862732,443.540344 236.333649,436.870483 241.476059,433.928162 
	C243.336975,432.863373 245.402924,432.153442 247.386078,431.306824 
	C249.198380,430.533112 251.025223,429.793488 254.411102,428.389832 
	C251.972443,426.390717 250.369614,424.028107 248.657654,423.946136 
	C246.642273,423.849670 244.348343,425.481384 242.521744,426.832275 
	C241.071533,427.904846 240.143066,429.682953 238.375824,431.914337 
	C237.328583,424.698639 240.730652,419.805481 246.139862,419.010284 
	C251.704590,418.192200 257.061646,421.853210 257.584991,427.561737 
	C258.098877,433.167053 257.946686,438.857788 257.681610,444.491974 
	C257.620178,445.798279 255.913513,447.027222 254.963882,448.291748 
	C254.486389,448.116760 254.008881,447.941772 253.531372,447.766785 
	C253.531372,443.428192 253.531372,439.089630 253.531372,433.778137 
	C250.204788,435.046570 247.801178,435.963074 245.002731,437.053986 
z"/>
<path fill="#E5E6E6" opacity="1.000000" stroke="none" 
	d="
M211.005371,437.960144 
	C210.092178,441.627533 213.370209,446.338165 206.753006,448.191223 
	C206.753006,444.570068 206.752838,441.336731 206.753052,438.103424 
	C206.753632,429.779510 206.611389,421.451080 206.874008,413.135437 
	C206.927429,411.443970 208.505646,409.800598 209.380951,408.135071 
	C209.928268,408.368652 210.475601,408.602234 211.022919,408.835815 
	C211.022919,412.461517 211.022919,416.087250 211.022919,419.770966 
	C222.911758,417.792023 226.914673,421.243927 226.918533,433.094879 
	C226.919662,436.590912 227.176559,440.115295 226.800674,443.570618 
	C226.622742,445.206390 225.230438,446.710083 224.388321,448.273621 
	C223.785751,448.086304 223.183182,447.898987 222.580612,447.711670 
	C222.580612,442.307617 222.634354,436.902893 222.565582,431.499695 
	C222.496170,426.047516 220.373871,423.159393 216.548325,423.564209 
	C211.847885,424.061584 210.788651,427.370758 210.989410,431.490967 
	C211.086517,433.483948 211.005661,435.485626 211.005371,437.960144 
z"/>
<path fill="#E3E4E4" opacity="1.000000" stroke="none" 
	d="
M343.583374,442.752899 
	C345.396698,440.476837 346.905121,438.426971 348.942810,435.657806 
	C350.615753,442.029388 347.644989,446.891113 342.527161,448.136902 
	C336.982056,449.486694 331.248535,446.296844 330.440277,440.656494 
	C329.788055,436.105164 329.809753,431.323486 330.422302,426.763550 
	C330.996216,422.491333 334.104767,419.716309 338.507294,419.049347 
	C342.845490,418.392120 346.392975,420.043701 348.830566,423.677002 
	C351.537018,427.710999 350.453461,431.057373 346.019409,433.041809 
	C342.248993,434.729187 338.492310,436.447266 334.807892,438.116272 
	C335.960327,443.707184 337.777161,444.680786 343.583374,442.752899 
M340.345123,430.885712 
	C342.211853,429.983948 344.078583,429.082184 346.165314,428.074158 
	C344.088379,424.033966 341.408478,422.395996 337.762909,424.007111 
	C333.835693,425.742645 333.992828,429.202209 334.664703,433.267365 
	C336.666901,432.401855 338.150635,431.760468 340.345123,430.885712 
z"/>
<path fill="#E7E8E8" opacity="1.000000" stroke="none" 
	d="
M532.123047,437.606506 
	C535.711670,435.740570 535.217285,438.170166 535.041931,439.964661 
	C534.587463,444.615875 530.293274,448.333130 525.397339,448.435120 
	C520.135925,448.544739 515.742188,444.833710 515.209412,439.408905 
	C514.868896,435.940430 515.320557,432.393372 514.968811,428.927063 
	C514.765869,426.927338 513.667297,425.019470 512.980774,423.067108 
	C512.833923,422.649536 512.545105,422.179199 512.627502,421.799591 
	C513.438538,418.064789 514.155701,414.295288 515.276245,410.651459 
	C515.580017,409.663666 517.158081,409.067719 518.982605,407.642578 
	C519.210754,411.765564 519.389099,414.987915 519.594788,418.704468 
	C523.806335,418.704468 527.885071,418.704468 532.117554,418.704468 
	C532.459534,423.360199 529.775696,423.398346 526.786926,423.400421 
	C518.668030,423.406036 519.400635,422.324890 519.349487,430.931274 
	C519.336609,433.097321 518.804626,435.485718 519.537292,437.373749 
	C520.455017,439.738739 521.996521,442.710052 524.051331,443.587982 
	C527.189575,444.928833 529.641846,442.598633 530.871582,439.413727 
	C531.098511,438.825806 531.508972,438.308777 532.123047,437.606506 
z"/>
<path fill="#E3E4E4" opacity="1.000000" stroke="none" 
	d="
M585.252930,423.820557 
	C583.580017,426.106598 581.553101,428.141876 581.241150,430.412720 
	C580.656921,434.664642 581.274231,439.068329 580.958984,443.377197 
	C580.835327,445.067383 579.548584,446.672455 578.791504,448.316284 
	C578.244934,448.158875 577.698364,448.001495 577.151794,447.844086 
	C577.151794,440.640625 576.673584,433.393921 577.319458,426.248871 
	C577.752014,421.463684 582.855896,418.524353 587.756104,418.977264 
	C592.632690,419.428009 596.598450,423.080200 596.879028,428.024933 
	C597.180542,433.339569 597.153198,438.693604 596.859558,444.007843 
	C596.777588,445.492554 595.247437,446.897217 594.381592,448.338623 
	C593.815491,448.153290 593.249451,447.967957 592.683411,447.782623 
	C592.683411,442.042603 592.741516,436.301849 592.664917,430.562836 
	C592.604553,426.042603 590.728210,423.204254 585.252930,423.820557 
z"/>
<path fill="#E0E1E1" opacity="1.000000" stroke="none" 
	d="
M373.706787,424.817871 
	C371.016968,422.967896 368.713623,423.159760 367.992340,426.133514 
	C367.205688,429.376587 369.947601,429.658630 372.321594,430.194702 
	C378.195892,431.521271 381.182465,434.876038 380.917847,439.536163 
	C380.666016,443.971283 377.202026,447.719849 372.775269,448.347717 
	C367.901093,449.039093 363.474731,446.345184 361.773773,441.652191 
	C360.697021,438.681366 360.849213,438.427094 364.838287,436.918610 
	C365.136780,437.839813 365.461029,438.738770 365.719421,439.656311 
	C366.650848,442.964111 369.190369,444.535004 372.133301,443.630371 
	C373.876251,443.094604 376.468933,440.032471 376.108398,439.048798 
	C375.364685,437.019806 373.144928,434.728302 371.086914,434.161102 
	C367.429657,433.153107 363.919250,432.070099 363.713318,428.003052 
	C363.590027,425.568268 364.833130,422.377319 366.580688,420.673828 
	C370.566376,416.788788 375.948364,418.972900 379.052979,426.491028 
	C376.761719,425.879150 375.351837,425.502655 373.706787,424.817871 
z"/>
<path fill="#E0E1E1" opacity="1.000000" stroke="none" 
	d="
M504.401428,440.703552 
	C504.170532,443.889862 505.502808,447.494354 500.033264,447.847107 
	C500.033264,441.996796 499.972656,436.280609 500.053650,430.566406 
	C500.111847,426.458679 498.593842,423.534302 494.173828,423.644989 
	C490.057251,423.748047 488.607239,426.654205 488.630310,430.482849 
	C488.656342,434.803040 488.873505,439.145172 488.498047,443.433167 
	C488.349670,445.127716 486.827850,446.702026 485.931427,448.331085 
	C485.370728,448.089294 484.810028,447.847504 484.249329,447.605713 
	C484.249329,441.014008 483.917419,434.400269 484.352295,427.837372 
	C484.713043,422.393433 489.344482,418.759613 494.540222,418.928314 
	C500.123199,419.109589 504.078583,422.977936 504.346039,428.783905 
	C504.521790,432.597961 504.393585,436.426025 504.401428,440.703552 
z"/>
<path fill="#DADCDC" opacity="1.000000" stroke="none" 
	d="
M299.090729,425.998352 
	C299.091248,421.339233 298.841431,417.155518 299.212067,413.027496 
	C299.366333,411.309479 300.843445,409.710236 301.718994,408.056946 
	C302.343231,408.286377 302.967499,408.515808 303.591736,408.745209 
	C303.591736,416.339111 303.587463,423.932983 303.594635,431.526886 
	C303.596527,433.523712 303.060364,435.770111 303.794312,437.456665 
	C304.802063,439.772278 306.436829,442.724915 308.463409,443.389069 
	C309.986511,443.888153 312.654572,441.357300 314.611084,439.903656 
	C315.878998,438.961578 316.783478,437.530334 318.243683,435.872101 
	C319.889252,442.421326 316.995239,447.054993 311.460022,448.235321 
	C305.517731,449.502533 299.978516,445.725189 299.304474,439.464569 
	C298.843567,435.183716 299.135406,430.821838 299.090729,425.998352 
z"/>
<path fill="#DADCDC" opacity="1.000000" stroke="none" 
	d="
M279.702637,418.975220 
	C282.696075,421.111420 285.808228,422.829407 287.717224,425.430420 
	C289.498138,427.856964 288.433533,430.237305 284.528442,430.260284 
	C284.263824,429.203949 284.346466,427.652771 283.650208,427.120422 
	C281.834656,425.732361 279.372070,423.575073 277.736420,423.986450 
	C275.800629,424.473328 273.378571,427.170105 273.080078,429.191498 
	C272.382294,433.916656 273.041199,438.826172 272.691742,443.627625 
	C272.573181,445.256561 271.077637,446.785248 270.211304,448.359741 
	C269.775177,448.168762 269.339081,447.977783 268.902954,447.786804 
	C268.902954,440.447845 268.229156,433.024139 269.137543,425.799377 
	C269.753174,420.902924 274.146942,418.653381 279.702637,418.975220 
z"/>
<path fill="#E5E6E6" opacity="1.000000" stroke="none" 
	d="
M555.169678,443.806885 
	C557.516479,442.608398 559.566345,441.448181 561.394104,440.006317 
	C562.651184,439.014618 563.600098,437.632263 565.093018,435.972961 
	C566.520386,442.543579 563.555481,447.096741 558.048645,448.207001 
	C552.256775,449.374695 546.628601,445.663635 546.156311,439.777069 
	C545.705017,434.152130 545.833618,428.459991 546.088684,422.814575 
	C546.147583,421.510834 547.760193,420.277313 548.657837,419.011475 
	C549.168884,419.200928 549.679871,419.390381 550.190918,419.579803 
	C550.190918,425.175720 550.213440,430.771790 550.182617,436.367523 
	C550.163635,439.813385 551.053589,442.641266 555.169678,443.806885 
z"/>
<path fill="#E0E1E1" opacity="1.000000" stroke="none" 
	d="
M545.522217,413.821716 
	C545.701477,411.835815 545.896301,409.986511 546.721924,408.483704 
	C546.914062,408.133942 549.755920,408.535492 550.462891,409.368500 
	C551.189087,410.224060 551.273743,413.007721 550.800903,413.239746 
	C549.337524,413.958069 547.475159,413.863495 545.522217,413.821716 
z"/>
<path fill="#4F5961" opacity="1.000000" stroke="none" 
	d="
M426.150452,332.733582 
	C426.410736,337.115662 424.311218,338.555267 420.686646,338.552460 
	C397.892334,338.534912 375.098022,338.535950 352.303711,338.551147 
	C348.670654,338.553589 346.861786,337.129028 346.893402,333.179688 
	C347.018616,317.540710 347.011841,301.899719 346.897736,286.260590 
	C346.870148,282.477936 348.148865,280.868530 352.104309,280.887299 
	C374.898193,280.995605 397.693451,281.025970 420.486725,280.865234 
	C424.993439,280.833466 426.235168,282.713440 426.201385,286.840179 
	C426.077362,301.979980 426.152924,317.121399 426.150452,332.733582 
M414.124512,309.341125 
	C413.963684,297.326019 406.051117,288.455933 395.022186,287.927246 
	C383.696472,287.384369 374.131897,295.625336 373.193085,306.735596 
	C372.273865,317.613556 380.661011,327.652405 391.727234,328.919739 
	C402.701752,330.176575 412.276520,322.173279 414.124512,309.341125 
M415.568298,285.658295 
	C414.398438,286.358429 413.228607,287.058563 412.058777,287.758728 
	C413.469330,288.197235 414.924500,289.098206 416.280182,288.967499 
	C418.394745,288.763641 420.441864,287.860016 422.517548,287.252899 
	C420.505402,286.720428 418.493225,286.187958 415.568298,285.658295 
z"/>
<path fill="#576168" opacity="1.000000" stroke="none" 
	d="
M339.989746,431.002380 
	C338.150635,431.760468 336.666901,432.401855 334.664703,433.267365 
	C333.992828,429.202209 333.835693,425.742645 337.762909,424.007111 
	C341.408478,422.395996 344.088379,424.033966 346.165314,428.074158 
	C344.078583,429.082184 342.211853,429.983948 339.989746,431.002380 
z"/>
<path fill="#D6D8D9" opacity="1.000000" stroke="none" 
	d="
M414.110535,309.781433 
	C412.276520,322.173279 402.701752,330.176575 391.727234,328.919739 
	C380.661011,327.652405 372.273865,317.613556 373.193085,306.735596 
	C374.131897,295.625336 383.696472,287.384369 395.022186,287.927246 
	C406.051117,288.455933 413.963684,297.326019 414.110535,309.781433 
M411.228790,304.486145 
	C408.839478,295.903198 402.358887,290.574310 394.106781,290.406982 
	C386.384735,290.250397 379.438232,295.046112 376.824158,302.338531 
	C374.144958,309.812622 376.628326,318.237000 383.025543,322.808746 
	C389.327301,327.312317 396.125854,327.690765 402.741943,323.887695 
	C409.806458,319.826904 412.488129,313.319672 411.228790,304.486145 
z"/>
<path fill="#E7E8E8" opacity="1.000000" stroke="none" 
	d="
M416.024689,285.656921 
	C418.493225,286.187958 420.505402,286.720428 422.517548,287.252899 
	C420.441864,287.860016 418.394745,288.763641 416.280182,288.967499 
	C414.924500,289.098206 413.469330,288.197235 412.058777,287.758728 
	C413.228607,287.058563 414.398438,286.358429 416.024689,285.656921 
z"/>
<path fill="#576168" opacity="1.000000" stroke="none" 
	d="
M411.330475,304.876099 
	C412.488129,313.319672 409.806458,319.826904 402.741943,323.887695 
	C396.125854,327.690765 389.327301,327.312317 383.025543,322.808746 
	C376.628326,318.237000 374.144958,309.812622 376.824158,302.338531 
	C379.438232,295.046112 386.384735,290.250397 394.106781,290.406982 
	C402.358887,290.574310 408.839478,295.903198 411.330475,304.876099 
M400.521729,295.666473 
	C392.289917,292.494690 385.262543,294.404938 381.365479,300.873688 
	C377.682495,306.987091 378.941986,314.843719 384.332947,319.385101 
	C390.592834,324.658508 399.729340,323.894440 404.829834,317.670959 
	C410.438019,310.828064 408.969208,302.071289 400.521729,295.666473 
z"/>
<path fill="#D6D8D9" opacity="1.000000" stroke="none" 
	d="
M400.860413,295.845947 
	C408.969208,302.071289 410.438019,310.828064 404.829834,317.670959 
	C399.729340,323.894440 390.592834,324.658508 384.332947,319.385101 
	C378.941986,314.843719 377.682495,306.987091 381.365479,300.873688 
	C385.262543,294.404938 392.289917,292.494690 400.860413,295.845947 
M383.944641,301.670502 
	C380.930176,306.390533 381.085968,311.132477 384.306915,315.585175 
	C387.344666,319.784515 391.755219,321.042511 396.664307,319.886505 
	C401.682983,318.704742 404.511292,315.159882 405.533508,310.218170 
	C406.484253,305.621948 403.863190,300.409149 399.602325,298.054504 
	C394.437225,295.200134 389.395172,296.185669 383.944641,301.670502 
z"/>
<path fill="#4F5961" opacity="1.000000" stroke="none" 
	d="
M384.162415,301.350189 
	C389.395172,296.185669 394.437225,295.200134 399.602325,298.054504 
	C403.863190,300.409149 406.484253,305.621948 405.533508,310.218170 
	C404.511292,315.159882 401.682983,318.704742 396.664307,319.886505 
	C391.755219,321.042511 387.344666,319.784515 384.306915,315.585175 
	C381.085968,311.132477 380.930176,306.390533 384.162415,301.350189 
z"/>
</svg>